<?xml version="1.0" encoding="utf-8"?>
<!-- Generator: Adobe Illustrator 25.0.0, SVG Export Plug-In . SVG Version: 6.00 Build 0)  -->
<svg version="1.1" id="图层_1" xmlns="http://www.w3.org/2000/svg" xmlns:xlink="http://www.w3.org/1999/xlink" x="0px" y="0px"
	 viewBox="0 0 32 32" style="enable-background:new 0 0 32 32;" xml:space="preserve">
<style type="text/css">
	.st0{fill:#D8D8DB;}
</style>
<path class="st0" d="M28,4v26H7c-1.7,0-3-1.3-3-3s1.3-3,3-3h19V0H6C3.8,0,2,1.8,2,4v24c0,2.2,1.8,4,4,4h24V4H28z"/>
<path class="st0" d="M7,26L7,26C7,26,7,26,7,26c-0.6,0-1,0.4-1,1s0.4,1,1,1c0,0,0,0,0,0l0,0h19v-2C26,26,7,26,7,26z"/>
</svg>
