<svg width="1280" height="720" xmlns="http://www.w3.org/2000/svg" xmlns:xlink="http://www.w3.org/1999/xlink" overflow="hidden"><defs><clipPath id="clip0"><path d="M0 0 1280 0 1280 720 0 720Z" fill-rule="evenodd" clip-rule="evenodd"/></clipPath></defs><g clip-path="url(#clip0)"><rect x="0" y="0" width="1280" height="720" fill="#FFFFFF"/><text font-family="Times New Roman,Times New Roman_MSFontService,sans-serif" font-weight="700" font-size="24" transform="translate(412.582 158)">A<tspan x="436.987" y="420">O</tspan><tspan x="4.00003" y="420">I</tspan><tspan x="438.32" y="0">E</tspan></text><path d="M448 149 835.632 149 835.632 152 448 152ZM449.5 155 440.5 150.5 449.5 146ZM834.131 146 843.131 150.5 834.131 155Z"/><path d="M444 568 833.13 568 833.13 571 444 571ZM445.5 574 436.5 569.5 445.5 565ZM831.63 565 840.63 569.5 831.63 574Z"/><path d="M441.929 168.645 836.822 551.617 834.733 553.77 439.84 170.799ZM438.828 173.996 435.5 164.5 445.094 167.535ZM837.833 548.418 841.161 557.914 831.567 554.879Z"/><path d="M6.45241 4.10272 406.396 387.142 404.321 389.308 4.37738 6.26933ZM3.38729 9.47504 0 0 9.6124 2.97519ZM407.389 383.939 410.777 393.414 401.164 390.439Z" transform="matrix(-1 -8.74228e-08 -8.74228e-08 1 843.277 163.5)"/><rect x="583" y="130" width="116" height="39" fill="#FFFFFF"/><text font-family="SimSun,SimSun_MSFontService,sans-serif" font-weight="700" font-size="24" transform="translate(592.676 160)">反对关系</text><rect x="567" y="550" width="141" height="39" fill="#FFFFFF"/><text font-family="SimSun,SimSun_MSFontService,sans-serif" font-weight="700" font-size="24" transform="translate(577.303 580)">下反对关系</text><path d="M568.233 396.733 678.635 289.576 705.641 317.4 595.239 424.557Z" fill="#FFFFFF" fill-rule="evenodd"/><text font-family="SimSun,SimSun_MSFontService,sans-serif" font-weight="700" font-size="24" transform="matrix(0.717574 -0.696482 0.696482 0.717574 596.411 411)">矛盾<tspan x="84.7742" y="0.0609283">关系</tspan></text><path d="M593.985 290.823 705.641 396.672 678.965 424.812 567.309 318.963Z" fill="#FFFFFF" fill-rule="evenodd"/><text font-family="SimSun,SimSun_MSFontService,sans-serif" font-weight="700" font-size="24" transform="matrix(0.725725 0.687985 -0.687985 0.725725 580.99 320)">矛盾<tspan x="84.5829" y="-0.264194">关系</tspan></text><path d="M423 169.5 423 542.663 420 542.663 420 169.5ZM426 541.162 421.5 550.162 417 541.162Z"/><path d="M861 169.5 861 542.663 858 542.663 858 169.5ZM864 541.162 859.5 550.162 855 541.162Z"/><rect x="397" y="307" width="48" height="105" fill="#FFFFFF"/><text font-family="SimSun,SimSun_MSFontService,sans-serif" font-weight="700" font-size="24" writing-mode="tb-rl" transform="matrix(1 -4.37114e-08 4.37114e-08 1 412.799 312)" x="8.625" y="3.5625">差等关系</text><rect x="834" y="307" width="49" height="105" fill="#FFFFFF"/><text font-family="SimSun,SimSun_MSFontService,sans-serif" font-weight="700" font-size="24" writing-mode="tb-rl" transform="matrix(1 -4.37114e-08 4.37114e-08 1 849.989 312)" x="8.625" y="3.5625">差等关系</text><text font-family="SimSun,SimSun_MSFontService,sans-serif" font-weight="400" font-size="24" transform="translate(294.904 158)">所有<tspan font-family="Times New Roman,Times New Roman_MSFontService,sans-serif" font-style="italic" x="48" y="0">S</tspan>是<tspan font-family="Times New Roman,Times New Roman_MSFontService,sans-serif" font-style="italic" x="84" y="0">P</tspan><tspan x="13.3333" y="29">上位式</tspan><tspan x="591.525" y="0">没有</tspan><tspan font-family="Times New Roman,Times New Roman_MSFontService,sans-serif" font-style="italic" x="639.525" y="0">S</tspan>是<tspan font-family="Times New Roman,Times New Roman_MSFontService,sans-serif" font-style="italic" x="675.525" y="0">P</tspan><tspan x="604.859" y="29">上位式</tspan><tspan x="26.3762" y="391">下位式</tspan><tspan x="25.0429" y="420">有</tspan><tspan font-family="Times New Roman,Times New Roman_MSFontService,sans-serif" font-style="italic" x="49.0429" y="420">S</tspan>是<tspan font-family="Times New Roman,Times New Roman_MSFontService,sans-serif" font-style="italic" x="85.0429" y="420">P</tspan><tspan x="606.626" y="391">下位式</tspan><tspan x="593.293" y="420">有</tspan><tspan font-family="Times New Roman,Times New Roman_MSFontService,sans-serif" font-style="italic" x="617.293" y="420">S</tspan>不是<tspan font-family="Times New Roman,Times New Roman_MSFontService,sans-serif" font-style="italic" x="677.293" y="420">P</tspan></text></g></svg>