<svg width="1280" height="720" xmlns="http://www.w3.org/2000/svg" xmlns:xlink="http://www.w3.org/1999/xlink" overflow="hidden"><defs><clipPath id="clip0"><path d="M0 0 1280 0 1280 720 0 720Z" fill-rule="evenodd" clip-rule="evenodd"/></clipPath></defs><g clip-path="url(#clip0)"><rect x="0" y="0" width="1280" height="720" fill="#FFFFFF"/><path d="M125 182.5C125 119.816 175.592 69 238 69 300.408 69 351 119.816 351 182.5 351 245.184 300.408 296 238 296 175.592 296 125 245.184 125 182.5Z" stroke="#000000" stroke-width="2" stroke-miterlimit="8" fill="none" fill-rule="evenodd"/><path d="M266 182.5C266 119.816 316.816 69 379.5 69 442.184 69 493 119.816 493 182.5 493 245.184 442.184 296 379.5 296 316.816 296 266 245.184 266 182.5Z" stroke="#000000" stroke-width="2" stroke-miterlimit="8" fill="none" fill-rule="evenodd"/><text font-family="Times New Roman,Times New Roman_MSFontService,sans-serif" font-style="italic" font-weight="700" font-size="24" transform="translate(117.875 112)">S<tspan x="368.33" y="0">P</tspan></text><path d="M0 0 113.32 113.32" stroke="#000000" stroke-width="2" stroke-miterlimit="8" fill="none" fill-rule="evenodd" transform="matrix(-1 -8.74228e-08 -8.74228e-08 1 238.32 69)"/><path d="M0 0 114.113 115.679" stroke="#000000" stroke-width="2" stroke-miterlimit="8" fill="none" fill-rule="evenodd" transform="matrix(-1 -8.74228e-08 -8.74228e-08 1 272.113 146)"/><path d="M0 0 76.5334 78.2038" stroke="#000000" stroke-width="2" stroke-miterlimit="8" fill="none" fill-rule="evenodd" transform="matrix(-1 -8.74228e-08 -8.74228e-08 1 269.533 208)"/><path d="M0 0 49.2339 49.3195" stroke="#000000" stroke-width="2" stroke-miterlimit="8" fill="none" fill-rule="evenodd" transform="matrix(-1 -8.74228e-08 -8.74228e-08 1 286.234 247)"/><path d="M0 0 149.56 149.133" stroke="#000000" stroke-width="2" stroke-miterlimit="8" fill="none" fill-rule="evenodd" transform="matrix(-1 -8.74228e-08 -8.74228e-08 1 282.56 79)"/><text font-family="Times New Roman,Times New Roman_MSFontService,sans-serif" font-weight="400" font-size="24" transform="translate(239.05 340)">A<tspan font-family="SimSun,SimSun_MSFontService,sans-serif" x="17.3333" y="0">：</tspan><tspan font-family="SimSun,SimSun_MSFontService,sans-serif" x="41.3333" y="0">所有</tspan><tspan font-style="italic" x="89.3333" y="0">S</tspan><tspan font-family="SimSun,SimSun_MSFontService,sans-serif" x="101.333" y="0">是</tspan><tspan font-style="italic" x="125.333" y="0">P</tspan><tspan font-family="Cambria Math,Cambria Math_MSFontService,sans-serif" x="33.3867" y="29">𝑆</tspan><tspan font-family="Cambria Math,Cambria Math_MSFontService,sans-serif" x="46.52" y="29">𝑃</tspan></text><path d="M10.3242-14.0273 0-14.0273 0-15.2695 10.3242-15.2695Z" transform="translate(289.644 365)"/><text font-family="Cambria Math,Cambria Math_MSFontService,sans-serif" font-weight="400" font-size="24" transform="translate(307.657 369)">=<tspan x="24.6667" y="0">0</tspan></text><path d="M769 182.5C769 119.816 819.816 69 882.5 69 945.184 69 996 119.816 996 182.5 996 245.184 945.184 296 882.5 296 819.816 296 769 245.184 769 182.5Z" stroke="#000000" stroke-width="2" stroke-miterlimit="8" fill="none" fill-rule="evenodd"/><path d="M911 182.5C911 119.816 961.816 69 1024.5 69 1087.18 69 1138 119.816 1138 182.5 1138 245.184 1087.18 296 1024.5 296 961.816 296 911 245.184 911 182.5Z" stroke="#000000" stroke-width="2" stroke-miterlimit="8" fill="none" fill-rule="evenodd"/><text font-family="Times New Roman,Times New Roman_MSFontService,sans-serif" font-style="italic" font-weight="700" font-size="24" transform="translate(762.372 112)">S<tspan x="368.33" y="0">P</tspan></text><path d="M0 0 49.2339 49.3195" stroke="#000000" stroke-width="2" stroke-miterlimit="8" fill="none" fill-rule="evenodd" transform="matrix(-1 -8.74228e-08 -8.74228e-08 1 992.234 212)"/><text font-family="Times New Roman,Times New Roman_MSFontService,sans-serif" font-weight="400" font-size="24" transform="translate(884.88 340)">E<tspan font-family="SimSun,SimSun_MSFontService,sans-serif" x="14.6667" y="0">：</tspan><tspan font-family="SimSun,SimSun_MSFontService,sans-serif" x="38.6667" y="0">没有</tspan><tspan font-style="italic" x="86.6667" y="0">S</tspan><tspan font-family="SimSun,SimSun_MSFontService,sans-serif" x="98.6667" y="0">是</tspan><tspan font-style="italic" x="122.667" y="0">P</tspan><tspan font-family="Cambria Math,Cambria Math_MSFontService,sans-serif" x="32.2867" y="29">𝑆𝑃</tspan><tspan font-family="Cambria Math,Cambria Math_MSFontService,sans-serif" x="67.04" y="29">=</tspan><tspan font-family="Cambria Math,Cambria Math_MSFontService,sans-serif" x="91.7067" y="29">0</tspan></text><path d="M0 0 49.2339 49.3195" stroke="#000000" stroke-width="2" stroke-miterlimit="8" fill="none" fill-rule="evenodd" transform="matrix(-1 -8.74228e-08 -8.74228e-08 1 964.234 104)"/><path d="M0 0 73.5865 73.5767" stroke="#000000" stroke-width="2" stroke-miterlimit="8" fill="none" fill-rule="evenodd" transform="matrix(-1 -8.74228e-08 -8.74228e-08 1 990.586 144)"/><path d="M0 0 67.8365 67.1493" stroke="#000000" stroke-width="2" stroke-miterlimit="8" fill="none" fill-rule="evenodd" transform="matrix(-1 -8.74228e-08 -8.74228e-08 1 995.837 175)"/><path d="M0 0 67.8365 67.1493" stroke="#000000" stroke-width="2" stroke-miterlimit="8" fill="none" fill-rule="evenodd" transform="matrix(-1 -8.74228e-08 -8.74228e-08 1 978.837 123)"/><path d="M125 510.5C125 447.816 175.592 397 238 397 300.408 397 351 447.816 351 510.5 351 573.184 300.408 624 238 624 175.592 624 125 573.184 125 510.5Z" stroke="#000000" stroke-width="2" stroke-miterlimit="8" fill="none" fill-rule="evenodd"/><path d="M266 510.5C266 447.816 316.816 397 379.5 397 442.184 397 493 447.816 493 510.5 493 573.184 442.184 624 379.5 624 316.816 624 266 573.184 266 510.5Z" stroke="#000000" stroke-width="2" stroke-miterlimit="8" fill="none" fill-rule="evenodd"/><text font-family="Times New Roman,Times New Roman_MSFontService,sans-serif" font-style="italic" font-weight="700" font-size="24" transform="translate(117.875 440)">S<tspan x="368.33" y="0">P</tspan><tspan font-style="normal" font-weight="400" x="137.841" y="228">I</tspan><tspan font-family="SimSun,SimSun_MSFontService,sans-serif" font-style="normal" font-weight="400" x="145.841" y="228">：</tspan><tspan font-family="SimSun,SimSun_MSFontService,sans-serif" font-style="normal" font-weight="400" x="169.841" y="228">有</tspan><tspan font-weight="400" x="193.841" y="228">S</tspan><tspan font-family="SimSun,SimSun_MSFontService,sans-serif" font-style="normal" font-weight="400" x="205.841" y="228">是</tspan><tspan font-weight="400" x="229.841" y="228">P</tspan><tspan font-family="Cambria Math,Cambria Math_MSFontService,sans-serif" font-style="normal" font-weight="400" x="154.795" y="257">𝑆𝑃</tspan><tspan font-family="Cambria Math,Cambria Math_MSFontService,sans-serif" font-style="normal" font-weight="400" x="189.548" y="257">≠</tspan><tspan font-family="Cambria Math,Cambria Math_MSFontService,sans-serif" font-style="normal" font-weight="400" x="214.215" y="257">0</tspan><tspan font-weight="400" x="185.711" y="79">x</tspan></text><path d="M769 510.5C769 447.816 819.816 397 882.5 397 945.184 397 996 447.816 996 510.5 996 573.184 945.184 624 882.5 624 819.816 624 769 573.184 769 510.5Z" stroke="#000000" stroke-width="2" stroke-miterlimit="8" fill="none" fill-rule="evenodd"/><path d="M911 510.5C911 447.816 961.816 397 1024.5 397 1087.18 397 1138 447.816 1138 510.5 1138 573.184 1087.18 624 1024.5 624 961.816 624 911 573.184 911 510.5Z" stroke="#000000" stroke-width="2" stroke-miterlimit="8" fill="none" fill-rule="evenodd"/><text font-family="Times New Roman,Times New Roman_MSFontService,sans-serif" font-style="italic" font-weight="700" font-size="24" transform="translate(762.372 440)">S<tspan x="368.33" y="0">P</tspan><tspan font-style="normal" font-weight="400" x="121.175" y="228">O</tspan><tspan font-family="SimSun,SimSun_MSFontService,sans-serif" font-style="normal" font-weight="400" x="138.508" y="228">：</tspan><tspan font-family="SimSun,SimSun_MSFontService,sans-serif" font-style="normal" font-weight="400" x="162.508" y="228">有</tspan><tspan font-weight="400" x="186.508" y="228">S</tspan><tspan font-family="SimSun,SimSun_MSFontService,sans-serif" font-style="normal" font-weight="400" x="198.508" y="228">不是</tspan><tspan font-weight="400" x="246.508" y="228">P</tspan><tspan font-family="Cambria Math,Cambria Math_MSFontService,sans-serif" font-style="normal" font-weight="400" x="154.561" y="257">𝑆</tspan><tspan font-family="Cambria Math,Cambria Math_MSFontService,sans-serif" font-style="normal" font-weight="400" x="167.695" y="257">𝑃</tspan></text><path d="M10.3242-14.0273 0-14.0273 0-15.2695 10.3242-15.2695Z" transform="translate(934.14 693)"/><text font-family="Cambria Math,Cambria Math_MSFontService,sans-serif" font-weight="400" font-size="24" transform="translate(952.153 697)">≠<tspan x="24.6666" y="0">0</tspan><tspan font-family="Times New Roman,Times New Roman_MSFontService,sans-serif" font-style="italic" x="-101.765" y="-185">x</tspan></text></g></svg>