<svg width="1280" height="720" xmlns="http://www.w3.org/2000/svg" xmlns:xlink="http://www.w3.org/1999/xlink" overflow="hidden"><defs><clipPath id="clip0"><path d="M0 0 1280 0 1280 720 0 720Z" fill-rule="evenodd" clip-rule="evenodd"/></clipPath></defs><g clip-path="url(#clip0)"><rect x="0" y="0" width="1280" height="720" fill="#FFFFFF"/><path d="M365.5 280.5C365.5 175.014 451.014 89.5001 556.5 89.5001 661.986 89.5001 747.5 175.014 747.5 280.5 747.5 385.986 661.986 471.5 556.5 471.5 451.014 471.5 365.5 385.986 365.5 280.5Z" stroke="#000000" stroke-width="1.33333" stroke-miterlimit="8" fill="none" fill-rule="evenodd"/><path d="M542.5 280.5C542.5 175.014 628.014 89.5001 733.5 89.5001 838.986 89.5001 924.5 175.014 924.5 280.5 924.5 385.986 838.986 471.5 733.5 471.5 628.014 471.5 542.5 385.986 542.5 280.5Z" stroke="#000000" stroke-width="1.33333" stroke-miterlimit="8" fill="none" fill-rule="evenodd"/><path d="M456.5 441C456.5 335.237 542.238 249.5 648 249.5 753.763 249.5 839.5 335.237 839.5 441 839.5 546.763 753.763 632.5 648 632.5 542.238 632.5 456.5 546.763 456.5 441Z" stroke="#000000" stroke-width="1.33333" stroke-miterlimit="8" fill="none" fill-rule="evenodd"/><text font-family="Cambria Math,Cambria Math_MSFontService,sans-serif" font-weight="400" font-size="24" transform="translate(623.095 353)">𝑆𝑃𝑀<tspan x="123.632" y="65">𝑆</tspan></text><path d="M0.984375-14.0273-7.69922-14.0273-7.69922-15.2695 0.984375-15.2695Z" transform="translate(759.621 413)"/><text font-family="Cambria Math,Cambria Math_MSFontService,sans-serif" font-weight="400" font-size="24" transform="translate(759.861 418)">𝑃𝑀<tspan x="-255.879" y="0">𝑆</tspan><tspan x="-242.746" y="0">𝑃</tspan></text><path d="M10.3242-14.0273 0-14.0273 0-15.2695 10.3242-15.2695Z" transform="translate(521.188 413)"/><text font-family="Cambria Math,Cambria Math_MSFontService,sans-serif" font-weight="400" font-size="24" transform="translate(532.535 418)">𝑀<tspan x="90.6003" y="-215">𝑆𝑃</tspan><tspan x="118.687" y="-215">𝑀</tspan></text><path d="M13.6055-14.0273 0-14.0273 0-15.2695 13.6055-15.2695Z" transform="translate(656.702 198)"/><text font-family="Cambria Math,Cambria Math_MSFontService,sans-serif" font-weight="400" font-size="24" transform="translate(444.863 243)">𝑆<tspan x="13.1333" y="0">𝑃𝑀</tspan></text><path d="M458.003 223.482 464.257 223.482 468.328 223.482 470.51 223.482 474.581 223.482 476.757 223.482 480.834 223.482 483.003 223.482 487.081 223.482 493.328 223.482 493.328 224.724 487.081 224.724 483.003 224.724 480.834 224.724 476.757 224.724 474.581 224.724 470.51 224.724 468.328 224.724 464.257 224.724 458.003 224.724Z" fill-rule="evenodd"/><text font-family="Cambria Math,Cambria Math_MSFontService,sans-serif" font-weight="400" font-size="24" transform="translate(794.902 239)">𝑆</text><path d="M0.984375-14.0273-7.69922-14.0273-7.69922-15.2695 0.984375-15.2695Z" transform="translate(807.796 234)"/><text font-family="Cambria Math,Cambria Math_MSFontService,sans-serif" font-weight="400" font-size="24" transform="translate(808.036 239)">𝑃<tspan x="15.42" y="0">𝑀</tspan></text><path d="M13.6055-14.0273 0-14.0273 0-15.2695 13.6055-15.2695Z" transform="translate(828.936 234)"/><text font-family="Cambria Math,Cambria Math_MSFontService,sans-serif" font-weight="400" font-size="24" transform="translate(622.9 549)">𝑆<tspan x="12.6666" y="0">𝑃</tspan></text><path d="M622.906 528.874 628.626 528.874 633.231 528.874 634.346 528.874 638.951 528.874 640.066 528.874 644.671 528.874 650.391 528.874 650.391 530.116 644.671 530.116 640.066 530.116 638.951 530.116 634.346 530.116 633.231 530.116 628.626 530.116 622.906 530.116Z" fill-rule="evenodd"/><text font-family="Cambria Math,Cambria Math_MSFontService,sans-serif" font-weight="400" font-size="24" transform="translate(650.986 549)">𝑀<tspan x="221.073" y="-42">𝑆</tspan><tspan x="233.74" y="-42">𝑃𝑀</tspan></text><path d="M872.067 487.09 879.6 487.09 882.391 487.09 887.133 487.09 889.924 487.09 894.667 487.09 897.457 487.09 902.2 487.09 904.991 487.09 909.733 487.09 912.524 487.09 920.057 487.09 920.057 488.333 912.524 488.333 909.733 488.333 904.991 488.333 902.2 488.333 897.457 488.333 894.667 488.333 889.924 488.333 887.133 488.333 882.391 488.333 879.6 488.333 872.067 488.333Z" fill-rule="evenodd"/></g></svg>