<svg width="1280" height="720" xmlns="http://www.w3.org/2000/svg" xmlns:xlink="http://www.w3.org/1999/xlink" overflow="hidden"><defs><clipPath id="clip0"><path d="M0 0 1280 0 1280 720 0 720Z" fill-rule="evenodd" clip-rule="evenodd"/></clipPath></defs><g clip-path="url(#clip0)"><rect x="0" y="0" width="1280" height="720" fill="#FFFFFF"/><rect x="440.5" y="160.5" width="401" height="400" stroke="#000000" stroke-width="3" stroke-miterlimit="8" fill="none"/><text font-family="Times New Roman,Times New Roman_MSFontService,sans-serif" font-weight="700" font-size="24" transform="translate(412.582 158)">A<tspan x="436.987" y="420">O</tspan><tspan x="4.00003" y="420">I</tspan><tspan x="438.32" y="0">E</tspan></text><path d="M369.981 101.697C372.262 102.299 374.014 103.598 375.237 105.594 376.459 107.59 377.071 109.998 377.071 112.818 377.071 115.646 376.461 118.055 375.243 120.043 374.024 122.031 372.27 123.326 369.981 123.928L369.7 123.025C371.504 122.424 372.846 121.236 373.725 119.463 374.604 117.689 375.043 115.436 375.043 112.701 375.043 110.061 374.606 107.867 373.731 106.121 372.856 104.375 371.5 103.201 369.665 102.6ZM354.898 101.697 355.215 102.6C353.387 103.201 352.033 104.375 351.154 106.121 350.275 107.867 349.836 110.061 349.836 112.701 349.836 115.436 350.275 117.689 351.154 119.463 352.033 121.236 353.375 122.424 355.18 123.025L354.898 123.928C352.609 123.326 350.855 122.031 349.637 120.043 348.418 118.055 347.809 115.646 347.809 112.818 347.809 109.998 348.42 107.59 349.643 105.594 350.865 103.598 352.617 102.299 354.898 101.697Z" fill-rule="evenodd"/><text font-family="Cambria Math,Cambria Math_MSFontService,sans-serif" font-weight="400" font-size="24" transform="translate(355.659 120)">𝑥<tspan x="23.52" y="0">(</tspan>𝜙𝑥<tspan x="70.08" y="0">⊃</tspan><tspan x="94.7467" y="0">𝜓𝑥</tspan><tspan x="125.14" y="0">)</tspan></text><path d="M798.899 101.697C801.181 102.299 802.933 103.598 804.155 105.594 805.378 107.59 805.989 109.998 805.989 112.818 805.989 115.646 805.38 118.055 804.161 120.043 802.942 122.031 801.188 123.326 798.899 123.928L798.618 123.025C800.423 122.424 801.765 121.236 802.643 119.463 803.522 117.689 803.962 115.436 803.962 112.701 803.962 110.061 803.524 107.867 802.649 106.121 801.774 104.375 800.419 103.201 798.583 102.6ZM783.817 101.697 784.133 102.6C782.305 103.201 780.952 104.375 780.073 106.121 779.194 107.867 778.754 110.061 778.754 112.701 778.754 115.436 779.194 117.689 780.073 119.463 780.952 121.236 782.293 122.424 784.098 123.025L783.817 123.928C781.528 123.326 779.774 122.031 778.555 120.043 777.336 118.055 776.727 115.646 776.727 112.818 776.727 109.998 777.338 107.59 778.561 105.594 779.784 103.598 781.536 102.299 783.817 101.697Z" fill-rule="evenodd"/><text font-family="Cambria Math,Cambria Math_MSFontService,sans-serif" font-weight="400" font-size="24" transform="translate(784.578 120)">𝑥<tspan x="23.52" y="0">(</tspan>𝜙𝑥<tspan x="70.08" y="0">⊃</tspan>∼<tspan x="111.913" y="0">𝜓𝑥</tspan><tspan x="142.307" y="0">)</tspan></text><path d="M383.981 599.194C386.262 599.795 388.014 601.094 389.237 603.09 390.459 605.086 391.071 607.495 391.071 610.315 391.071 613.143 390.461 615.551 389.243 617.54 388.024 619.528 386.27 620.823 383.981 621.424L383.7 620.522C385.504 619.92 386.846 618.733 387.725 616.96 388.604 615.186 389.043 612.932 389.043 610.198 389.043 607.557 388.606 605.364 387.731 603.618 386.856 601.872 385.5 600.698 383.664 600.096ZM354.732 599.194 355.048 600.096C353.22 600.698 351.866 601.872 350.988 603.618 350.109 605.364 349.669 607.557 349.669 610.198 349.669 612.932 350.109 615.186 350.988 616.96 351.866 618.733 353.208 619.92 355.013 620.522L354.732 621.424C352.443 620.823 350.689 619.528 349.47 617.54 348.251 615.551 347.642 613.143 347.642 610.315 347.642 607.495 348.253 605.086 349.476 603.09 350.698 601.094 352.45 599.795 354.732 599.194Z" fill-rule="evenodd"/><text font-family="Cambria Math,Cambria Math_MSFontService,sans-serif" font-weight="400" font-size="24" transform="translate(355.492 617)">∃<tspan x="14.1667" y="0">𝑥</tspan><tspan x="37.6867" y="0">(</tspan>𝜙𝑥<tspan x="82.9133" y="0">⋅</tspan><tspan x="95.08" y="0">𝜓𝑥</tspan><tspan x="125.473" y="0">)</tspan></text><path d="M812.233 598.684C814.514 599.286 816.266 600.584 817.489 602.581 818.711 604.577 819.323 606.985 819.323 609.805 819.323 612.633 818.713 615.042 817.495 617.03 816.276 619.018 814.522 620.313 812.233 620.915L811.952 620.012C813.756 619.411 815.098 618.223 815.977 616.45 816.856 614.676 817.295 612.422 817.295 609.688 817.295 607.047 816.858 604.854 815.983 603.108 815.108 601.362 813.752 600.188 811.916 599.586ZM782.984 598.684 783.3 599.586C781.472 600.188 780.118 601.362 779.239 603.108 778.361 604.854 777.921 607.047 777.921 609.688 777.921 612.422 778.361 614.676 779.239 616.45 780.118 618.223 781.46 619.411 783.265 620.012L782.984 620.915C780.695 620.313 778.941 619.018 777.722 617.03 776.503 615.042 775.894 612.633 775.894 609.805 775.894 606.985 776.505 604.577 777.728 602.581 778.95 600.584 780.702 599.286 782.984 598.684Z" fill-rule="evenodd"/><text font-family="Cambria Math,Cambria Math_MSFontService,sans-serif" font-weight="400" font-size="24" transform="translate(783.744 617)">∃<tspan x="14.1667" y="0">𝑥</tspan><tspan x="37.6867" y="0">(</tspan>𝜙𝑥<tspan x="82.9133" y="0">⋅</tspan><tspan x="89.7467" y="0">∼</tspan><tspan x="113.58" y="0">𝜓𝑥</tspan><tspan x="143.973" y="0">)</tspan></text></g></svg>