<svg width="1280" height="720" xmlns="http://www.w3.org/2000/svg" xmlns:xlink="http://www.w3.org/1999/xlink" overflow="hidden"><defs><clipPath id="clip0"><path d="M0 0 1280 0 1280 720 0 720Z" fill-rule="evenodd" clip-rule="evenodd"/></clipPath></defs><g clip-path="url(#clip0)"><rect x="0" y="0" width="1280" height="720" fill="#FFFFFF"/><text font-family="Times New Roman,Times New Roman_MSFontService,sans-serif" font-weight="700" font-size="24" transform="translate(368.972 158)">A: <tspan font-family="Cambria Math,Cambria Math_MSFontService,sans-serif" font-weight="400" x="31.3333" y="0">𝑆</tspan><tspan font-family="Cambria Math,Cambria Math_MSFontService,sans-serif" font-weight="400" x="44.4667" y="0">𝑃</tspan></text><path d="M10.3242-14.0273 0-14.0273 0-15.2695 10.3242-15.2695Z" transform="translate(417.512 154)"/><text font-family="Cambria Math,Cambria Math_MSFontService,sans-serif" font-weight="400" font-size="24" transform="translate(435.526 158)">=<tspan x="24.6667" y="0">0</tspan><tspan font-family="Times New Roman,Times New Roman_MSFontService,sans-serif" font-weight="700" x="370.434" y="420">O: </tspan><tspan x="403.1" y="420">𝑆</tspan><tspan x="416.234" y="420">𝑃</tspan></text><path d="M10.3242-14.0273 0-14.0273 0-15.2695 10.3242-15.2695Z" transform="translate(855.833 573)"/><text font-family="Cambria Math,Cambria Math_MSFontService,sans-serif" font-weight="400" font-size="24" transform="translate(873.846 578)">≠<tspan x="24.6667" y="0">0</tspan><tspan font-family="Times New Roman,Times New Roman_MSFontService,sans-serif" font-weight="700" x="-500.64" y="0">I:</tspan><tspan x="-477.307" y="0">𝑆𝑃</tspan><tspan x="-442.554" y="0">≠</tspan><tspan x="-417.887" y="0">0</tspan><tspan font-family="Times New Roman,Times New Roman_MSFontService,sans-serif" font-weight="700" x="-66.3201" y="-420">E: </tspan>𝑆<tspan x="-23.6534" y="-420">𝑃</tspan><tspan x="-1.56671" y="-420">=</tspan><tspan x="23.1" y="-420">0</tspan></text><path d="M441.929 168.645 836.822 551.617 834.733 553.77 439.84 170.799ZM438.828 173.996 435.5 164.5 445.094 167.535ZM837.833 548.418 841.161 557.914 831.567 554.879Z"/><path d="M6.45241 4.10272 406.396 387.142 404.321 389.308 4.37738 6.26933ZM3.38729 9.47504 0 0 9.6124 2.97519ZM407.389 383.939 410.777 393.414 401.164 390.439Z" transform="matrix(-1 -8.74228e-08 -8.74228e-08 1 843.277 163.5)"/><path d="M568.233 396.733 678.635 289.576 705.641 317.4 595.239 424.557Z" fill="#FFFFFF" fill-rule="evenodd"/><text font-family="SimSun,SimSun_MSFontService,sans-serif" font-weight="700" font-size="24" transform="matrix(0.717574 -0.696482 0.696482 0.717574 596.411 411)">矛盾<tspan x="84.7742" y="0.0609283">关系</tspan></text><path d="M593.985 290.823 705.641 396.672 678.965 424.812 567.309 318.963Z" fill="#FFFFFF" fill-rule="evenodd"/><text font-family="SimSun,SimSun_MSFontService,sans-serif" font-weight="700" font-size="24" transform="matrix(0.725725 0.687985 -0.687985 0.725725 580.99 320)">矛盾<tspan x="84.5829" y="-0.264194">关系</tspan></text></g></svg>