<svg width="1280" height="720" xmlns="http://www.w3.org/2000/svg" xmlns:xlink="http://www.w3.org/1999/xlink" overflow="hidden"><defs><clipPath id="clip0"><path d="M0 0 1280 0 1280 720 0 720Z" fill-rule="evenodd" clip-rule="evenodd"/></clipPath></defs><g clip-path="url(#clip0)"><rect x="0" y="0" width="1280" height="720" fill="#FFFFFF"/><path d="M410.844 140.472C413.125 141.074 414.877 142.373 416.1 144.369 417.323 146.365 417.934 148.773 417.934 151.593 417.934 154.421 417.325 156.83 416.106 158.818 414.887 160.806 413.133 162.101 410.844 162.703L410.563 161.8C412.368 161.199 413.709 160.011 414.588 158.238 415.467 156.464 415.907 154.211 415.907 151.476 415.907 148.836 415.469 146.642 414.594 144.896 413.719 143.15 412.364 141.976 410.528 141.375ZM395.762 140.472 396.078 141.375C394.25 141.976 392.897 143.15 392.018 144.896 391.139 146.642 390.699 148.836 390.699 151.476 390.699 154.211 391.139 156.464 392.018 158.238 392.897 160.011 394.238 161.199 396.043 161.8L395.762 162.703C393.473 162.101 391.719 160.806 390.5 158.818 389.281 156.83 388.672 154.421 388.672 151.593 388.672 148.773 389.283 146.365 390.506 144.369 391.729 142.373 393.48 141.074 395.762 140.472Z" fill-rule="evenodd"/><text font-family="Cambria Math,Cambria Math_MSFontService,sans-serif" font-weight="400" font-size="24" transform="translate(396.523 158)">𝑥<tspan x="23.52" y="0">𝜙𝑥</tspan></text><path d="M840.331 559.909C842.612 560.511 844.364 561.81 845.587 563.806 846.81 565.802 847.421 568.21 847.421 571.03 847.421 573.858 846.812 576.267 845.593 578.255 844.374 580.243 842.62 581.538 840.331 582.14L840.05 581.237C841.855 580.636 843.196 579.448 844.075 577.675 844.954 575.901 845.394 573.647 845.394 570.913 845.394 568.272 844.956 566.079 844.081 564.333 843.206 562.587 841.851 561.413 840.015 560.811ZM811.082 559.909 811.398 560.811C809.57 561.413 808.217 562.587 807.338 564.333 806.459 566.079 806.02 568.272 806.02 570.913 806.02 573.647 806.459 575.901 807.338 577.675 808.217 579.448 809.559 580.636 811.363 581.237L811.082 582.14C808.793 581.538 807.039 580.243 805.82 578.255 804.602 576.267 803.992 573.858 803.992 571.03 803.992 568.21 804.604 565.802 805.826 563.806 807.049 561.81 808.801 560.511 811.082 559.909Z" fill-rule="evenodd"/><text font-family="Cambria Math,Cambria Math_MSFontService,sans-serif" font-weight="400" font-size="24" transform="translate(811.843 578)">∃<tspan x="14.1667" y="0">𝑥</tspan><tspan x="44.3533" y="0">∼</tspan><tspan x="68.1866" y="0">𝜙𝑥</tspan></text><path d="M417.928 559.909C420.209 560.511 421.961 561.81 423.184 563.806 424.406 565.802 425.018 568.21 425.018 571.03 425.018 573.858 424.408 576.267 423.189 578.255 421.971 580.243 420.217 581.538 417.928 582.14L417.646 581.237C419.451 580.636 420.793 579.448 421.672 577.675 422.551 575.901 422.99 573.647 422.99 570.913 422.99 568.272 422.553 566.079 421.678 564.333 420.803 562.587 419.447 561.413 417.611 560.811ZM388.679 559.909 388.995 560.811C387.167 561.413 385.813 562.587 384.934 564.333 384.056 566.079 383.616 568.272 383.616 570.913 383.616 573.647 384.056 575.901 384.934 577.675 385.813 579.448 387.155 580.636 388.96 581.237L388.679 582.14C386.389 581.538 384.636 580.243 383.417 578.255 382.198 576.267 381.589 573.858 381.589 571.03 381.589 568.21 382.2 565.802 383.423 563.806 384.645 561.81 386.397 560.511 388.679 559.909Z" fill-rule="evenodd"/><text font-family="Cambria Math,Cambria Math_MSFontService,sans-serif" font-weight="400" font-size="24" transform="translate(389.439 578)">∃<tspan x="14.1667" y="0">𝑥</tspan><tspan x="37.6866" y="0">𝜙𝑥</tspan><tspan x="418.939" y="-420">(</tspan>𝑥<tspan x="442.499" y="-420">)</tspan><tspan x="459.165" y="-420">∼</tspan><tspan x="482.999" y="-420">𝜙𝑥</tspan></text><path d="M474 149 793.225 149 793.225 152 474 152ZM475.5 155 466.5 150.5 475.5 146ZM791.724 146 800.724 150.5 791.724 155Z"/><path d="M481 568 784.511 568 784.511 571 481 571ZM482.5 574 473.5 569.5 482.5 565ZM783.011 565 792.011 569.5 783.011 574Z"/><path d="M441.929 168.645 836.822 551.617 834.733 553.77 439.84 170.799ZM438.828 173.996 435.5 164.5 445.094 167.535ZM837.833 548.418 841.161 557.914 831.567 554.879Z"/><path d="M6.45241 4.10272 406.396 387.142 404.321 389.308 4.37738 6.26933ZM3.38729 9.47504 0 0 9.6124 2.97519ZM407.389 383.939 410.777 393.414 401.164 390.439Z" transform="matrix(-1 -8.74228e-08 -8.74228e-08 1 843.277 163.5)"/><rect x="583" y="130" width="116" height="39" fill="#FFFFFF"/><text font-family="SimSun,SimSun_MSFontService,sans-serif" font-weight="700" font-size="24" transform="translate(592.676 160)">反对关系</text><rect x="567" y="550" width="141" height="39" fill="#FFFFFF"/><text font-family="SimSun,SimSun_MSFontService,sans-serif" font-weight="700" font-size="24" transform="translate(577.303 580)">下反对关系</text><path d="M568.233 396.733 678.635 289.576 705.641 317.4 595.239 424.557Z" fill="#FFFFFF" fill-rule="evenodd"/><text font-family="SimSun,SimSun_MSFontService,sans-serif" font-weight="700" font-size="24" transform="matrix(0.717574 -0.696482 0.696482 0.717574 596.411 411)">矛盾<tspan x="84.7742" y="0.0609283">关系</tspan></text><path d="M593.985 290.823 705.641 396.672 678.965 424.812 567.309 318.963Z" fill="#FFFFFF" fill-rule="evenodd"/><text font-family="SimSun,SimSun_MSFontService,sans-serif" font-weight="700" font-size="24" transform="matrix(0.725725 0.687985 -0.687985 0.725725 580.99 320)">矛盾<tspan x="84.5829" y="-0.264194">关系</tspan></text><path d="M423 169.5 423 542.663 420 542.663 420 169.5ZM426 541.162 421.5 550.162 417 541.162Z"/><path d="M860 169.498 860.538 542.661 857.538 542.665 857 169.502ZM863.536 541.155 859.049 550.162 854.536 541.168Z"/><rect x="397" y="307" width="48" height="105" fill="#FFFFFF"/><text font-family="SimSun,SimSun_MSFontService,sans-serif" font-weight="700" font-size="24" writing-mode="tb-rl" transform="matrix(1 -4.37114e-08 4.37114e-08 1 412.799 312)" x="8.625" y="3.5625">差等关系</text><rect x="834" y="307" width="49" height="105" fill="#FFFFFF"/><text font-family="SimSun,SimSun_MSFontService,sans-serif" font-weight="700" font-size="24" writing-mode="tb-rl" transform="matrix(1 -4.37114e-08 4.37114e-08 1 849.989 312)" x="8.625" y="3.5625">差等关系</text></g></svg>